<svg width="131" height="24" viewBox="0 0 131 24" fill="none" xmlns="http://www.w3.org/2000/svg">
<g clip-path="url(#clip0_54907_25572)">
<path d="M12.8655 1.51619C12.8655 0.714484 13.5154 0.0645752 14.3171 0.0645752C15.1188 0.0645752 15.7687 0.714485 15.7687 1.51619V22.5484C15.7687 23.3502 15.1188 24.0001 14.3171 24.0001C13.5154 24.0001 12.8655 23.3501 12.8655 22.5484V1.51619Z" fill="white"/>
<path d="M16.5429 7.70967C16.5429 6.90796 17.1928 6.25806 17.9945 6.25806C18.7962 6.25806 19.4461 6.90797 19.4461 7.70967V22.5484C19.4461 23.3501 18.7962 24 17.9945 24C17.1928 24 16.5429 23.3501 16.5429 22.5484V7.70967Z" fill="white"/>
<path d="M20.2203 1.51619C20.2203 0.714484 20.8702 0.0645752 21.6719 0.0645752C22.4737 0.0645752 23.1236 0.714485 23.1236 1.51619V22.5484C23.1236 23.3502 22.4737 24.0001 21.6719 24.0001C20.8702 24.0001 20.2203 23.3501 20.2203 22.5484V1.51619Z" fill="white"/>
<path d="M0.608507 11.9545C0.57754 9.78934 1.2098 7.71515 2.3756 5.84611C4.3956 2.60805 7.38141 0.755792 11.1259 0.11321C12.0782 -0.050015 12.1014 -0.0119539 12.1021 0.953208C12.1021 1.23256 12.1014 1.51192 12.1033 1.79192C12.1053 2.04095 11.984 2.16482 11.7362 2.18676C9.72657 2.36159 7.95109 3.13192 6.38012 4.36869C5.29496 5.22288 4.47625 6.31256 3.81044 7.51837C3.34399 8.36353 3.04335 9.27321 2.84915 10.21C2.53238 11.7422 2.63109 13.2706 3.08786 14.7635C3.57044 16.3403 4.38335 17.73 5.56464 18.8951C7.12657 20.4358 8.99754 21.3803 11.1421 21.7964C11.3311 21.8332 11.5266 21.8345 11.7182 21.859C11.9666 21.8913 12.1021 22.0222 12.0988 22.288C12.0937 22.7177 12.1053 23.148 12.0988 23.5777C12.0937 23.9119 11.9692 24.0119 11.6259 23.968C10.3266 23.8022 9.07689 23.4545 7.88786 22.9068C5.66915 21.8848 3.85948 20.3764 2.51883 18.3235C1.29689 16.4532 0.603346 14.1597 0.608507 11.9545Z" fill="white"/>
<path d="M12.1059 4.07073C12.1059 4.26427 12.1001 4.45782 12.1079 4.65137C12.1195 4.95266 11.9685 5.06492 11.6795 5.08685C8.28012 5.34492 5.67561 7.81266 5.27754 11.3004C5.04335 13.352 5.66335 15.1901 7.0698 16.7333C8.29754 18.0817 9.83948 18.8017 11.6395 18.9952C12.0137 19.0352 12.1001 19.1172 12.1021 19.501C12.104 19.8669 12.1072 20.232 12.0982 20.5978C12.0904 20.9017 11.9498 21.0172 11.644 20.9927C9.6169 20.8294 7.87754 19.9978 6.36915 18.6707C4.86012 17.3436 3.89496 15.6765 3.50915 13.7069C3.3698 12.9933 3.36786 12.2565 3.37367 11.514C3.38593 9.92557 3.94851 8.54879 4.73173 7.24169C5.52464 5.91911 6.63948 4.90234 7.9898 4.14621C9.02593 3.56557 10.1259 3.19395 11.3092 3.07718C11.3517 3.07266 11.395 3.06815 11.4375 3.06492C12.0395 3.0217 12.1053 3.08234 12.1059 3.68298C12.1059 3.81202 12.1059 3.94105 12.1059 4.07008L12.1059 4.07073Z" fill="white"/>
<path d="M5.95496 12.6682C5.93948 9.86623 6.87044 8.22365 8.54141 7.01139C9.42851 6.36752 10.4666 6.01397 11.5821 5.96365C12.0098 5.94429 12.0988 6.03784 12.1021 6.45784C12.1046 6.80171 12.0963 7.14623 12.104 7.4901C12.1111 7.78945 11.9704 7.90945 11.6775 7.92687C9.4756 8.05784 7.8098 9.84494 7.84012 12.0346C7.8698 14.1843 9.52141 15.9436 11.6556 16.0946C11.9511 16.1153 12.115 16.2282 12.1033 16.5501C12.0904 16.9262 12.1059 17.3024 12.0969 17.6785C12.0892 18.0082 11.9588 18.1082 11.6259 18.0856C10.1982 17.9882 8.94528 17.4424 7.90335 16.4895C6.59302 15.2901 5.97367 13.7566 5.95431 12.6688L5.95496 12.6682Z" fill="white"/>
<path d="M12.104 14.4803C12.1027 14.8674 12.0104 14.9558 11.6298 14.961C10.5053 14.9758 9.48205 14.2242 9.05172 13.0674C8.40592 11.3326 9.43559 9.44484 11.2195 9.09645C11.3343 9.07387 11.4537 9.06161 11.5704 9.05968C11.9969 9.05258 12.102 9.1558 12.1027 9.58677C12.1046 10.4023 12.1066 13.6648 12.1027 14.4803L12.104 14.4803Z" fill="white"/>
<path d="M51.5624 7.77244C50.4304 8.91978 44.8138 16.8808 42.859 19.5907C42.3377 20.3126 42.2432 20.3113 41.727 19.5907C38.9558 15.7105 36.1884 11.8277 33.4184 7.94749C33.3367 7.83378 33.2971 7.67279 33.1131 7.64213C32.9879 7.85933 33.0505 8.09697 33.0505 8.32056C33.0492 11.3282 33.0518 20.6525 33.0518 22.3083C33.0518 23.4147 32.9419 23.5195 31.8533 23.5182C30.7673 23.5182 29.6813 23.5182 28.5953 23.5195C27.8837 23.5195 27.6843 23.3726 27.6856 22.6878C27.6882 19.9204 27.7789 3.17417 27.7725 0.853958C27.7712 0.261127 28.0165 -0.00334567 28.6106 0.00304259C30.131 0.0170968 31.6642 0.0170968 33.2728 0.00304259C34.001 -0.00334567 34.4393 0.371006 34.8264 0.937006C36.9997 4.11708 39.1896 7.28694 41.3795 10.4568C42.3428 11.852 42.3288 11.8328 43.2794 10.4427C45.4667 7.24478 47.6975 4.07748 49.8593 0.862902C50.3997 0.0592587 51.1254 0.0669253 51.9125 0.0490382C53.2565 0.0183745 54.7897 0.0183743 56.0559 0.0388167C56.7318 0.0503156 56.9311 0.153805 56.9362 0.862902C56.9502 2.73594 56.9975 19.5051 56.9707 22.6328C56.9643 23.3598 56.8391 23.4965 56.1185 23.5042C55.012 23.517 53.9043 23.5118 52.7966 23.5118C51.6927 23.5118 51.5675 23.3917 51.5662 22.2559C51.5611 19.0413 51.5611 9.38612 51.5611 7.77244H51.5624Z" fill="white"/>
<path d="M87.7238 1.15681C87.7238 0.176854 87.895 0.0056468 88.8788 0.0056468C91.6883 0.00436914 94.4992 -0.00968464 97.3087 0.0120354C100.079 0.0337555 102.522 0.814402 104.442 2.97108C107.632 6.55362 106.599 12.5088 102.339 14.6769C101.783 14.9593 101.828 15.2187 102.091 15.6556C103.441 17.8979 104.78 20.1466 106.116 22.3965C106.273 22.661 106.555 22.9267 106.36 23.2666C106.167 23.6026 105.794 23.5004 105.486 23.503C104.188 23.5145 102.888 23.4876 101.59 23.5247C100.973 23.5426 100.591 23.2921 100.309 22.7734C99.1715 20.6768 97.8607 18.6836 96.6622 16.6228C96.1397 15.4704 94.9438 15.9482 93.951 15.8268C93.3212 15.7693 93.0886 15.9878 93.1001 16.6496C93.1346 18.5865 93.1052 20.5235 93.0988 22.4604C93.095 23.3905 92.9864 23.5017 92.0818 23.5055C91.0175 23.5106 89.9533 23.5145 88.889 23.5132C87.8221 23.5132 87.7072 23.3982 87.7072 22.3569C87.7072 18.8446 87.7072 15.3324 87.7072 11.8201C87.7123 11.8201 87.7225 4.70996 87.7238 1.15553V1.15681ZM96.0132 10.8414C96.7785 10.8414 97.5438 10.8529 98.3078 10.8376C98.939 10.8261 99.5216 10.6574 100.016 10.2384C100.924 9.46794 101.278 8.20179 100.894 7.05957C100.493 5.86879 99.4258 5.0396 98.1635 5.01405C96.6763 4.98466 95.1891 5.01532 93.7019 5.00127C93.2637 4.99744 93.0963 5.16864 93.1001 5.60432C93.1142 7.15539 93.1155 8.70646 93.1001 10.2575C93.1001 11.0037 92.9902 10.8401 96.0119 10.8401L96.0132 10.8414Z" fill="white"/>
<path d="M125.853 23.5234C125.296 23.5489 124.985 23.2998 124.795 22.7989C124.317 21.5455 123.806 20.3049 123.338 19.049C123.195 18.667 122.981 18.529 122.582 18.5303C120.368 18.5418 118.154 18.5405 115.938 18.5277C115.532 18.5252 115.325 18.6836 115.196 19.0656C114.793 20.2551 114.344 21.4293 113.946 22.6201C113.733 23.2589 113.359 23.5093 112.671 23.5144C111.469 23.5246 110.241 23.5246 109.03 23.5093C108.197 23.5042 107.999 23.278 108.275 22.4987C109.234 19.7901 114.544 5.50462 116.212 1.06095C116.586 0.0631013 116.666 0.0132721 117.752 0.00816151C118.732 0.00432855 119.711 0.00305176 120.691 0.00305176C121.832 0.00305176 121.904 0.041381 122.317 1.12866C123.954 5.42541 129.295 19.5179 130.342 22.2623C130.737 23.2947 130.595 23.5131 129.493 23.5144C128.894 23.5144 126.466 23.5246 125.851 23.5221L125.853 23.5234ZM119.333 8.20941C119.277 8.20558 119.222 8.20175 119.166 8.19791C118.573 9.82437 117.975 11.4483 117.395 13.0785C117.295 13.3596 117.529 13.3865 117.733 13.3865C118.734 13.3865 119.733 13.3865 120.733 13.3852C121.065 13.3852 121.223 13.2357 121.099 12.9035C120.515 11.3371 119.922 9.77454 119.333 8.20941Z" fill="white"/>
<path d="M83.9509 0.00306844C84.9449 0.00306844 85.0126 0.144888 85.0126 1.10696C85.0126 2.19041 85.0279 3.08477 85.0279 4.16566C85.0279 4.75338 84.789 5.0153 84.1872 5.00891C82.4841 4.99102 80.7797 4.99997 79.0766 4.99997C78.181 4.99997 78.1554 5.02424 78.1567 5.9416C78.1605 11.4138 78.1657 16.886 78.1695 22.3594C78.1695 23.4301 78.0737 23.5234 77.0017 23.5234C75.9374 23.5234 74.8719 23.5259 73.8076 23.5234C72.8685 23.5208 72.7561 23.4109 72.7561 22.4438C72.7561 16.9716 72.7612 11.4994 72.765 6.02592C72.765 5.3428 72.4286 5.00082 71.7557 4.99997C68.2421 4.99997 64.7286 5.00508 61.215 5.00508C60.3015 5.00508 60.2325 4.93736 60.2312 4.02639C60.23 3.00427 60.2313 1.98215 60.2376 0.960029C60.2427 0.130832 60.3628 0.00562234 61.2112 0.00562234C65.0148 0.00562234 80.1843 0.00179079 83.9521 0.00306844H83.9509Z" fill="white"/>
<path d="M65.5182 22.5281C65.5156 23.3675 65.3853 23.4978 64.5587 23.5055C63.4305 23.517 62.3036 23.5221 61.1754 23.5208C60.3462 23.5208 60.2019 23.4148 60.184 22.5651C60.1584 21.29 60.1278 12.3989 60.1405 9.23028C60.1482 7.12471 60.1699 7.55017 61.8155 7.51439C62.8147 7.49267 63.8163 7.52717 64.8155 7.50545C65.3419 7.49395 65.5271 7.70987 65.5233 8.22605C65.508 10.6523 65.5233 20.1861 65.5169 22.5268L65.5182 22.5281Z" fill="white"/>
</g>
<defs>
<clipPath id="clip0_54907_25572">
<rect width="130.059" height="24" fill="white" transform="translate(0.607422)"/>
</clipPath>
</defs>
</svg>
